<svg xmlns="http://www.w3.org/2000/svg" version="1.1" xmlns:xlink="http://www.w3.org/1999/xlink" xmlns:svgjs="http://svgjs.dev/svgjs" width="180" height="30" viewBox="0 0 2000 287"><g transform="matrix(1,0,0,1,-1.2121212121212466,0.6071712175675543)"><svg viewBox="0 0 396 57" data-background-color="#ffffff" preserveAspectRatio="xMidYMid meet" height="287" width="2000" xmlns="http://www.w3.org/2000/svg" xmlns:xlink="http://www.w3.org/1999/xlink"><g id="tight-bounds" transform="matrix(1,0,0,1,0.2400000000000091,-0.120588011851396)"><svg viewBox="0 0 395.52 57.2411760237028" height="57.2411760237028" width="395.52"><g><svg viewBox="0 0 395.52 57.2411760237028" height="57.2411760237028" width="395.52"><g><svg viewBox="0 0 395.52 57.2411760237028" height="57.2411760237028" width="395.52"><g id="textblocktransform"><svg viewBox="0 0 395.52 57.2411760237028" height="57.2411760237028" width="395.52" id="textblock"><g><svg viewBox="0 0 395.52 57.2411760237028" height="57.2411760237028" width="395.52"><g transform="matrix(1,0,0,1,0,0)"><svg width="395.52" viewBox="4 -36.01 321.34 46.51" height="57.2411760237028" data-palette-color="#000000"><path d="M26.49-14.99L9.5-14.99Q8.47-14.99 7.56-15.39 6.64-15.8 5.96-16.47 5.27-17.14 4.88-18.05 4.49-18.97 4.49-20L4.49-20 4.49-30Q4.49-31.03 4.88-31.95 5.27-32.86 5.96-33.53 6.64-34.2 7.56-34.61 8.47-35.01 9.5-35.01L9.5-35.01 26.49-35.01Q27.51-35.01 28.43-34.61 29.35-34.2 30.03-33.53 30.71-32.86 31.1-31.95 31.49-31.03 31.49-30L31.49-30 31.49-25.49 26.49-25.49 26.49-30 9.5-30 9.5-20 26.49-20Q27.51-20 28.43-19.6 29.35-19.21 30.03-18.53 30.71-17.85 31.1-16.93 31.49-16.02 31.49-14.99L31.49-14.99 31.49-5Q31.49-3.98 31.1-3.06 30.71-2.15 30.03-1.46 29.35-0.78 28.43-0.39 27.51 0 26.49 0L26.49 0 9.01 0Q7.98 0 7.07-0.39 6.15-0.78 5.47-1.46 4.79-2.15 4.39-3.06 4-3.98 4-5L4-5 4-9.5 9.01-9.5 9.01-5 26.49-5 26.49-14.99ZM46.56 10.5L41.77 10.5 47.21-2.34 37.01-26 42.06-26 49.66-8.11 57.25-26 62.3-26 46.56 10.5ZM90.3-21.19L90.3 0 85.49 0 85.49-21.19 72.09-21.19 72.09 0 67.3 0 67.3-26 72.09-26 72.09-21.41Q72.14-22.36 72.53-23.21 72.92-24.05 73.57-24.67 74.21-25.29 75.07-25.65 75.92-26 76.9-26L76.9-26 85.49-26Q86.49-26 87.37-25.62 88.25-25.24 88.9-24.6 89.55-23.95 89.92-23.07 90.3-22.19 90.3-21.19L90.3-21.19ZM98.31-4.81L98.31-11.35Q98.31-12.35 98.69-13.22 99.06-14.09 99.71-14.75 100.36-15.41 101.24-15.78 102.12-16.16 103.09-16.16L103.09-16.16 115.5-16.16 115.5-21.19 99.8-21.19 99.8-26 115.5-26Q116.5-26 117.38-25.62 118.25-25.24 118.9-24.6 119.55-23.95 119.93-23.07 120.31-22.19 120.31-21.19L120.31-21.19 120.31 0 115.5 0 115.5-4.39Q115.42-3.49 115.01-2.69 114.59-1.88 113.95-1.28 113.3-0.68 112.47-0.34 111.64 0 110.71 0L110.71 0 103.09 0Q102.12 0 101.24-0.38 100.36-0.76 99.71-1.4 99.06-2.05 98.69-2.93 98.31-3.81 98.31-4.81L98.31-4.81ZM103.09-11.35L103.09-4.81 115.5-4.81 115.5-11.35 103.09-11.35ZM151.31-21.19L151.31-4.81Q151.31-3.81 150.93-2.93 150.55-2.05 149.9-1.4 149.26-0.76 148.38-0.38 147.5 0 146.5 0L146.5 0 133.1 0 133.1 10.5 128.31 10.5 128.31-26 133.1-26 133.1-21.61Q133.17-22.53 133.58-23.33 134-24.12 134.63-24.72 135.27-25.32 136.11-25.66 136.95-26 137.91-26L137.91-26 146.5-26Q147.5-26 148.38-25.62 149.26-25.24 149.9-24.6 150.55-23.95 150.93-23.07 151.31-22.19 151.31-21.19L151.31-21.19ZM133.1-4.81L146.5-4.81 146.5-21.19 133.1-21.19 133.1-4.81ZM158.8-4.81L175.01-4.81 175.01-10.84 163.61-10.84Q162.61-10.84 161.73-11.22 160.85-11.6 160.2-12.24 159.56-12.89 159.18-13.77 158.8-14.65 158.8-15.65L158.8-15.65 158.8-21.19Q158.8-22.19 159.18-23.07 159.56-23.95 160.2-24.6 160.85-25.24 161.73-25.62 162.61-26 163.61-26L163.61-26 178.82-26 178.82-21.19 163.61-21.19 163.61-15.65 175.01-15.65Q176.01-15.65 176.88-15.27 177.75-14.89 178.41-14.25 179.06-13.6 179.44-12.72 179.82-11.84 179.82-10.84L179.82-10.84 179.82-4.81Q179.82-3.81 179.44-2.93 179.06-2.05 178.41-1.4 177.75-0.76 176.88-0.38 176.01 0 175.01 0L175.01 0 158.8 0 158.8-4.81ZM209.31-21.19L209.31-10.55 192.1-10.55 192.1-4.81 209.31-4.81 209.31 0 192.1 0Q191.12 0 190.24-0.38 189.36-0.76 188.72-1.4 188.07-2.05 187.69-2.93 187.31-3.81 187.31-4.81L187.31-4.81 187.31-21.19Q187.31-22.19 187.69-23.07 188.07-23.95 188.72-24.6 189.36-25.24 190.24-25.62 191.12-26 192.1-26L192.1-26 204.5-26Q205.5-26 206.38-25.62 207.26-25.24 207.91-24.6 208.55-23.95 208.93-23.07 209.31-22.19 209.31-21.19L209.31-21.19ZM204.5-21.19L192.1-21.19 192.1-15.36 204.5-15.36 204.5-21.19ZM257.84-35.01L262.85-35.01 262.85 0 257.84 0 257.84-14.99 237.8-14.99 237.8 0 232.79 0 232.79-35.01 237.8-35.01 237.8-20 257.84-20 257.84-35.01ZM271.34-4.81L271.34-26 276.12-26 276.12-4.81 289.53-4.81 289.53-26 294.34-26 294.34 0 289.53 0 289.53-4.39Q289.46-3.49 289.04-2.69 288.62-1.88 287.98-1.28 287.33-0.68 286.5-0.34 285.67 0 284.74 0L284.74 0 276.12 0Q275.15 0 274.27-0.38 273.39-0.76 272.74-1.4 272.1-2.05 271.72-2.93 271.34-3.81 271.34-4.81L271.34-4.81ZM325.34-21.19L325.34-4.81Q325.34-3.81 324.96-2.93 324.58-2.05 323.94-1.4 323.29-0.76 322.41-0.38 321.53 0 320.53 0L320.53 0 307.13 0Q306.15 0 305.27-0.38 304.39-0.76 303.75-1.4 303.1-2.05 302.72-2.93 302.34-3.81 302.34-4.81L302.34-4.81 302.34-36.01 307.13-36.01 307.13-21.41Q307.18-22.36 307.57-23.21 307.96-24.05 308.61-24.67 309.25-25.29 310.11-25.65 310.96-26 311.94-26L311.94-26 320.53-26Q321.53-26 322.41-25.62 323.29-25.24 323.94-24.6 324.58-23.95 324.96-23.07 325.34-22.19 325.34-21.19L325.34-21.19ZM320.53-21.19L307.13-21.19 307.13-4.81 320.53-4.81 320.53-21.19Z" opacity="1" transform="matrix(1,0,0,1,0,0)" fill="#ffffff" class="wordmark-text-0" data-fill-palette-color="primary" id="text-0"></path></svg></g></svg></g></svg></g></svg></g><g></g></svg></g><defs></defs></svg><rect width="395.52" height="57.2411760237028" fill="none" stroke="none" visibility="hidden"></rect></g></svg></g></svg>